<?xml version="1.0" standalone="no"?>
<!DOCTYPE svg PUBLIC "-//W3C//DTD SVG 20010904//EN"
 "http://www.w3.org/TR/2001/REC-SVG-20010904/DTD/svg10.dtd">
<svg version="1.0" xmlns="http://www.w3.org/2000/svg"
 width="500.000000pt" height="500.000000pt" viewBox="0 0 500.000000 500.000000"
 preserveAspectRatio="xMidYMid meet">

<g transform="translate(0.000000,500.000000) scale(0.100000,-0.100000)"
fill="#000000" stroke="none">
<path d="M2295 3769 c-177 -26 -411 -126 -566 -243 -104 -79 -223 -203 -291
-304 -65 -97 -154 -280 -141 -293 6 -6 20 16 37 60 50 127 149 277 259 390
162 167 369 286 607 348 129 35 381 43 514 19 273 -52 482 -161 677 -356 112
-111 195 -227 255 -354 19 -41 34 -78 34 -84 0 -5 7 -15 15 -22 27 -22 17 9
-34 116 -65 135 -133 234 -235 342 -186 195 -440 331 -703 377 -93 16 -327 18
-428 4z"/>
<path d="M3770 2772 c-8 -2 -22 -11 -31 -19 -17 -15 -53 -119 -64 -185 -5 -31
-11 -38 -41 -48 -19 -7 -48 -29 -66 -51 -36 -45 -55 -49 -64 -15 -17 70 -110
93 -164 41 -17 -16 -32 -37 -36 -47 -6 -21 -34 -25 -34 -4 0 21 -40 66 -68 77
-32 12 -81 -4 -112 -36 -18 -19 -25 -40 -28 -83 -4 -52 -1 -61 23 -90 23 -27
33 -32 72 -32 45 0 76 21 111 75 12 20 12 20 25 1 42 -63 59 -76 101 -76 23 0
51 7 62 15 12 8 25 11 29 7 5 -4 5 -2 1 5 -7 12 11 52 29 65 6 5 14 -8 21 -29
15 -53 49 -76 93 -63 19 5 38 15 42 21 5 8 15 6 36 -9 32 -22 59 -21 101 6 29
19 54 66 46 86 -9 22 -16 20 -49 -14 -33 -35 -50 -38 -64 -11 -8 14 1 43 39
127 70 157 77 254 22 282 -9 5 -24 7 -32 4z m11 -146 c-13 -60 -56 -159 -47
-106 3 14 7 50 11 80 3 30 11 70 17 89 9 30 12 32 21 16 7 -13 6 -37 -2 -79z
m-584 -228 c27 -30 -22 -83 -53 -57 -20 16 -18 88 3 111 17 19 18 19 27 -9 5
-15 15 -36 23 -45z m233 6 c27 -32 -15 -89 -46 -63 -20 17 -18 94 3 115 16 16
18 15 24 -10 4 -15 13 -34 19 -42z m239 -5 c1 -24 -6 -42 -19 -54 -19 -17 -22
-17 -36 -3 -13 12 -14 22 -5 53 5 20 18 46 28 57 16 18 18 18 24 1 4 -10 8
-34 8 -54z"/>
<path d="M1465 2731 c-72 -30 -89 -160 -29 -224 l25 -28 -25 -44 c-27 -45 -69
-85 -91 -85 -43 0 -62 111 -47 260 9 84 9 97 -6 108 -9 6 -19 12 -22 12 -3 0
-14 -6 -23 -12 -23 -17 -39 -180 -26 -278 11 -88 33 -136 72 -156 27 -14 33
-14 73 1 48 18 118 89 141 143 10 24 19 32 29 28 9 -3 21 -6 28 -6 9 0 12 -14
9 -47 -9 -105 83 -160 184 -111 16 8 31 7 60 -5 29 -11 44 -12 58 -5 11 6 -6
-16 -37 -50 -79 -83 -98 -140 -60 -175 28 -26 70 -21 101 11 25 24 58 105 76
185 4 20 10 27 21 23 8 -3 13 -2 10 3 -3 5 6 16 20 26 25 16 27 16 49 -5 28
-26 70 -29 92 -7 14 13 19 13 48 -5 32 -18 36 -18 65 -3 28 14 32 14 46 0 25
-24 50 -2 70 61 9 31 26 66 36 77 19 22 19 22 13 -35 -8 -72 0 -96 32 -109 52
-20 147 53 136 104 -6 24 -15 22 -48 -13 -44 -45 -59 -40 -52 18 3 26 9 61 12
78 12 57 -39 77 -89 35 -10 -9 -27 -29 -37 -46 l-19 -30 6 46 c7 51 -4 66 -35
50 -18 -10 -41 -78 -41 -124 0 -25 -28 -57 -49 -57 -10 0 -11 20 -6 85 l7 85
-25 0 c-14 0 -29 5 -33 11 -3 6 -17 8 -33 4 -44 -11 -88 -52 -106 -99 -15 -39
-59 -85 -71 -74 -2 2 1 34 7 72 6 37 8 70 5 74 -4 3 -23 11 -43 18 -29 10 -42
10 -68 0 -41 -18 -83 -68 -91 -112 -10 -56 -93 -96 -123 -60 -10 12 -7 15 16
21 68 15 104 87 66 134 -20 25 -35 27 -132 15 l-64 -7 7 24 c4 13 10 50 13 82
7 66 -6 99 -44 116 -27 13 -31 13 -58 2z m33 -86 c6 -28 -8 -106 -18 -100 -18
11 -31 84 -20 106 13 23 33 21 38 -6z m202 -201 c0 -13 -37 -44 -52 -44 -14 0
-9 33 8 51 17 19 44 15 44 -7z m215 -21 c-8 -58 -29 -95 -50 -87 -39 15 4 133
49 134 4 0 5 -21 1 -47z m255 25 c0 -34 -21 -102 -33 -110 -15 -9 -37 10 -37
34 0 10 7 33 16 51 26 50 54 63 54 25z m-295 -270 c-14 -47 -31 -73 -49 -76
-15 -3 -17 0 -11 20 10 31 44 78 56 78 6 0 7 -10 4 -22z"/>
<path d="M1610 2730 c0 -5 11 -10 25 -10 23 0 25 -3 25 -50 0 -27 5 -50 10
-50 6 0 10 23 10 50 0 49 1 50 31 50 17 0 28 4 24 10 -3 6 -33 10 -66 10 -33
0 -59 -4 -59 -10z"/>
<path d="M1760 2680 c0 -47 3 -60 15 -60 9 0 15 9 15 25 0 23 4 25 44 25 41 0
43 -1 38 -25 -3 -18 0 -25 12 -25 13 0 16 11 16 61 0 44 -3 60 -12 57 -7 -3
-14 -14 -16 -26 -3 -18 -10 -22 -43 -22 -35 0 -39 3 -39 25 0 16 -6 25 -15 25
-12 0 -15 -13 -15 -60z"/>
<path d="M1938 2690 c-1 -28 -1 -55 0 -60 5 -13 112 -13 112 0 0 6 -20 10 -45
10 -33 0 -45 4 -45 15 0 11 12 15 45 15 25 0 45 5 45 10 0 6 -20 10 -45 10
-33 0 -45 4 -45 15 0 11 12 15 45 15 25 0 45 5 45 10 0 6 -24 10 -54 10 l-54
0 -4 -50z"/>
<path d="M2885 2724 c-143 -23 -193 -70 -169 -161 7 -25 24 -34 53 -26 18 4
20 11 15 47 -7 47 3 60 54 71 32 7 32 6 32 -33 0 -74 -10 -101 -39 -104 -35
-4 -38 -51 -3 -56 25 -4 29 -32 12 -78 -22 -58 -70 -69 -119 -28 -51 43 -82
13 -41 -39 44 -56 134 -59 194 -7 26 23 37 44 47 89 l13 60 60 3 c58 3 61 4
61 28 0 23 -4 25 -57 28 -65 3 -64 2 -51 97 l6 47 95 -3 c81 -4 96 -2 106 13
22 35 -10 48 -129 52 -61 3 -123 2 -140 0z"/>
<path d="M2730 2170 l0 -60 60 0 c33 0 60 4 60 10 0 6 -20 10 -45 10 -33 0
-45 4 -45 15 0 11 11 15 40 15 22 0 40 5 40 10 0 6 -18 10 -40 10 -29 0 -40 4
-40 15 0 11 12 15 45 15 25 0 45 5 45 10 0 6 -27 10 -60 10 l-60 0 0 -60z"/>
<path d="M2903 2223 c-17 -6 -17 -40 -1 -49 7 -4 28 -10 47 -13 19 -4 36 -11
38 -18 7 -20 -36 -25 -69 -9 -36 18 -53 11 -24 -10 20 -14 72 -19 100 -8 19 7
21 40 4 50 -7 4 -28 10 -47 13 -19 4 -36 11 -38 18 -5 15 26 21 56 11 28 -10
42 -1 21 12 -16 10 -66 12 -87 3z"/>
<path d="M3040 2220 c0 -5 11 -10 25 -10 23 0 25 -3 25 -50 0 -33 4 -50 13
-50 8 0 12 16 12 47 0 45 2 48 28 51 53 6 26 22 -38 22 -37 0 -65 -4 -65 -10z"/>
<path d="M3267 2216 c-11 -8 -14 -17 -8 -20 5 -4 12 -2 16 4 3 5 19 10 36 10
44 0 37 -27 -10 -40 -35 -9 -51 -25 -51 -51 0 -5 27 -9 60 -9 33 0 60 4 60 10
0 6 -20 10 -45 10 -50 0 -61 16 -17 26 50 11 53 13 50 41 -3 24 -8 28 -38 30
-19 2 -43 -3 -53 -11z"/>
<path d="M3434 2222 c-13 -8 -34 -46 -34 -61 0 -23 41 -51 73 -51 62 0 92 71
45 104 -24 17 -65 21 -84 8z m76 -27 c30 -36 -18 -87 -62 -64 -18 9 -25 58
-11 72 12 13 60 7 73 -8z"/>
<path d="M3595 2217 c-11 -9 -14 -16 -7 -21 6 -3 13 -2 17 4 8 13 52 13 60 0
3 -5 -7 -15 -22 -21 -49 -19 -56 -24 -64 -47 -8 -21 -6 -22 57 -22 41 0 63 4
59 10 -3 6 -26 10 -51 10 -53 0 -58 15 -8 27 21 4 42 16 47 25 24 38 -46 65
-88 35z"/>
<path d="M3745 2217 c-11 -9 -14 -16 -7 -21 6 -3 13 -2 17 4 8 13 52 13 60 0
3 -5 -7 -15 -22 -21 -49 -19 -56 -24 -64 -47 -8 -21 -6 -22 51 -22 33 0 60 4
60 10 0 6 -21 10 -46 10 -50 0 -52 15 -2 28 17 4 36 15 42 24 23 38 -47 65
-89 35z"/>
<path d="M3195 2120 c3 -5 10 -10 16 -10 5 0 9 5 9 10 0 6 -7 10 -16 10 -8 0
-12 -4 -9 -10z"/>
<path d="M1320 1995 c0 -16 86 -172 127 -231 65 -95 232 -260 326 -323 161
-108 359 -186 531 -210 112 -16 317 -13 420 5 261 45 489 165 682 358 106 106
177 202 238 323 39 79 41 83 27 83 -5 0 -21 -24 -34 -54 -76 -166 -273 -391
-438 -499 -104 -68 -264 -139 -396 -174 -89 -24 -116 -26 -293 -27 -208 -1
-246 4 -405 55 -190 61 -369 173 -515 325 -89 92 -184 227 -227 320 -13 30
-29 54 -34 54 -5 0 -9 -2 -9 -5z"/>
</g>
</svg>
